<?xml version="1.0" standalone="no"?>
<!DOCTYPE svg PUBLIC "-//W3C//DTD SVG 20010904//EN"
 "http://www.w3.org/TR/2001/REC-SVG-20010904/DTD/svg10.dtd">
<svg version="1.0" xmlns="http://www.w3.org/2000/svg"
 width="1060.000000pt" height="706.000000pt" viewBox="0 0 1060.000000 706.000000"
 preserveAspectRatio="xMidYMid meet">

<g transform="translate(0.000000,706.000000) scale(0.100000,-0.100000)"
fill="#000000" stroke="none">
<path d="M3926 6044 c-104 -19 -241 -74 -441 -177 -2 -1 -29 22 -59 52 -52 52
-55 53 -87 42 -32 -10 -34 -13 -36 -63 -4 -125 -6 -133 -45 -170 -36 -34 -38
-38 -32 -82 l7 -46 -54 0 c-30 0 -61 -5 -69 -10 -13 -8 -12 -10 2 -10 10 0 17
-3 16 -7 -1 -5 10 -27 25 -49 16 -23 29 -51 30 -63 1 -11 5 -21 10 -21 5 0 7
-7 4 -15 -4 -8 -2 -17 4 -20 5 -4 6 -11 3 -17 -4 -6 3 -4 17 5 13 10 33 33 45
52 l21 35 24 -38 c13 -20 33 -38 44 -38 38 -3 40 -4 25 -14 -12 -8 -4 -20 45
-67 67 -65 90 -69 169 -35 l46 21 0 71 c0 45 4 69 10 65 6 -3 10 0 10 7 0 9
29 23 73 37 209 68 416 171 434 217 7 19 -22 131 -54 204 -32 72 -82 150 -97
149 -6 0 -47 -7 -90 -15z m46 -151 c51 -55 62 -111 34 -178 -30 -71 -142 -101
-196 -52 -14 12 -20 18 -13 13 8 -5 13 -4 13 3 0 8 5 9 19 1 44 -23 114 -2
145 42 34 49 14 142 -40 183 -15 12 -16 14 -3 15 8 0 27 -12 41 -27z m-2 -98
c0 -32 -24 -75 -42 -75 -6 0 -3 9 7 20 19 21 24 60 12 100 -8 24 -7 24 7 6 9
-11 16 -34 16 -51z m-301 -49 c12 -13 25 -42 28 -65 5 -35 2 -44 -25 -71 -32
-31 -68 -38 -103 -20 -10 6 -19 16 -19 22 0 9 3 9 12 0 39 -39 118 10 118 73
0 25 -8 44 -25 60 -13 14 -21 25 -16 25 4 0 18 -11 30 -24z m-5 -32 c9 -25 7
-49 -7 -67 -10 -15 -12 -10 -12 33 0 50 8 64 19 34z"/>
<path d="M3382 5984 c15 -8 43 -35 63 -61 19 -25 35 -41 35 -34 0 17 -94 111
-111 111 -8 -1 -2 -7 13 -16z"/>
<path d="M3290 5970 c-8 -5 -10 -10 -5 -10 6 0 17 5 25 10 8 5 11 10 5 10 -5
0 -17 -5 -25 -10z"/>
<path d="M3020 5680 c-8 -5 -10 -10 -5 -10 6 0 17 5 25 10 8 5 11 10 5 10 -5
0 -17 -5 -25 -10z"/>
<path d="M3168 5683 c6 -2 18 -2 25 0 6 3 1 5 -13 5 -14 0 -19 -2 -12 -5z"/>
<path d="M2945 5650 c-3 -6 1 -7 9 -4 18 7 21 14 7 14 -6 0 -13 -4 -16 -10z"/>
<path d="M2890 5615 c-11 -13 -10 -14 4 -9 9 3 16 10 16 15 0 13 -6 11 -20 -6z"/>
<path d="M2829 5553 c-13 -16 -12 -17 4 -4 9 7 17 15 17 17 0 8 -8 3 -21 -13z"/>
<path d="M2785 5499 c-4 -6 -5 -12 -2 -15 2 -3 7 2 10 11 7 17 1 20 -8 4z"/>
<path d="M2746 5435 c-9 -26 -7 -32 5 -12 6 10 9 21 6 23 -2 3 -7 -2 -11 -11z"/>
<path d="M3662 5373 c-1 -37 -8 -67 -16 -76 -8 -7 -48 -26 -90 -41 -43 -16
-75 -30 -73 -33 8 -7 164 57 177 72 6 8 10 39 7 77 l-3 63 -2 -62z"/>
<path d="M3306 5375 c-9 -26 -7 -32 5 -12 6 10 9 21 6 23 -2 3 -7 -2 -11 -11z"/>
<path d="M2713 5365 c-3 -9 -3 -18 -1 -21 3 -3 8 4 11 16 6 23 -1 27 -10 5z"/>
<path d="M3262 5300 c-7 -11 -9 -20 -4 -20 4 0 13 9 20 20 7 11 9 20 4 20 -4
0 -13 -9 -20 -20z"/>
<path d="M2687 5291 c-4 -17 -3 -21 5 -13 5 5 8 16 6 23 -3 8 -7 3 -11 -10z"/>
<path d="M3012 5260 c-8 -13 -8 -20 -2 -20 7 0 7 -6 0 -20 -7 -14 -7 -20 0
-20 5 0 10 6 11 13 0 6 2 24 4 40 4 32 3 33 -13 7z"/>
<path d="M3210 5250 c-8 -5 -12 -12 -9 -15 4 -3 12 1 19 10 14 17 11 19 -10 5z"/>
<path d="M2671 5233 c-1 -6 -4 -20 -7 -30 -5 -17 -5 -17 6 0 6 10 9 23 6 30
-3 9 -5 9 -5 0z"/>
<path d="M2786 5221 c-4 -5 3 -7 14 -4 23 6 26 13 6 13 -8 0 -17 -4 -20 -9z"/>
<path d="M2868 5223 c6 -2 18 -2 25 0 6 3 1 5 -13 5 -14 0 -19 -2 -12 -5z"/>
<path d="M2938 5223 c6 -2 18 -2 25 0 6 3 1 5 -13 5 -14 0 -19 -2 -12 -5z"/>
<path d="M3135 5210 c-8 -13 5 -13 25 0 13 8 13 10 -2 10 -9 0 -20 -4 -23 -10z"/>
<path d="M2724 5194 c-18 -14 -18 -15 4 -4 12 6 22 13 22 15 0 8 -5 6 -26 -11z"/>
<path d="M3065 5190 c-13 -6 -15 -9 -5 -9 8 0 22 4 30 9 18 12 2 12 -25 0z"/>
<path d="M2995 5170 c-3 -6 1 -7 9 -4 18 7 21 14 7 14 -6 0 -13 -4 -16 -10z"/>
<path d="M2660 5160 c-8 -5 -12 -12 -9 -15 4 -3 12 1 19 10 14 17 11 19 -10 5z"/>
<path d="M6489 5118 c-52 -40 -134 -44 -187 -10 -34 22 -47 3 -48 -73 0 -54 3
-66 18 -71 11 -3 18 -15 18 -29 0 -34 44 -65 92 -65 67 0 118 38 118 89 0 11
8 22 18 25 15 5 18 17 18 71 -1 76 -11 90 -47 63z"/>
<path d="M2606 5094 c-4 -10 -1 -14 6 -12 15 5 23 28 10 28 -5 0 -13 -7 -16
-16z"/>
<path d="M2557 5033 c-4 -3 -7 -11 -7 -17 0 -6 5 -5 12 2 6 6 9 14 7 17 -3 3
-9 2 -12 -2z"/>
<path d="M2507 4963 c-4 -3 -7 -11 -7 -17 0 -6 5 -5 12 2 6 6 9 14 7 17 -3 3
-9 2 -12 -2z"/>
<path d="M2455 4879 c-11 -17 1 -21 15 -4 8 9 8 15 2 15 -6 0 -14 -5 -17 -11z"/>
<path d="M2416 4804 c-4 -9 -4 -19 -1 -22 2 -3 7 3 11 12 4 9 4 19 1 22 -2 3
-7 -3 -11 -12z"/>
<path d="M2386 4724 c-4 -9 -4 -19 -1 -22 2 -3 7 3 11 12 4 9 4 19 1 22 -2 3
-7 -3 -11 -12z"/>
<path d="M6400 4640 c-11 -11 -20 -30 -20 -43 0 -24 -16 -36 -75 -53 -39 -12
-56 -55 -32 -82 12 -13 15 -28 11 -49 -7 -35 21 -72 39 -54 24 24 48 9 103
-65 l56 -76 40 6 c58 9 108 33 108 51 0 25 -42 106 -58 112 -9 4 -28 -9 -49
-31 -32 -33 -37 -36 -55 -24 -11 8 -34 39 -52 70 -38 69 -33 82 43 119 66 31
77 49 56 88 -27 53 -79 67 -115 31z"/>
<path d="M2361 4634 c0 -11 3 -14 6 -6 3 7 2 16 -1 19 -3 4 -6 -2 -5 -13z"/>
<path d="M2340 4551 c0 -25 6 -27 13 -6 4 8 2 17 -3 20 -6 4 -10 -3 -10 -14z"/>
<path d="M3424 4533 c10 -11 36 -12 36 -2 0 5 -10 9 -22 9 -12 0 -18 -3 -14
-7z"/>
<path d="M3340 4520 c0 -5 4 -10 9 -10 6 0 13 5 16 10 3 6 -1 10 -9 10 -9 0
-16 -4 -16 -10z"/>
<path d="M3510 4521 c0 -11 31 -24 39 -16 3 3 -1 10 -9 15 -19 12 -30 12 -30
1z"/>
<path d="M3255 4490 c-3 -5 1 -10 9 -10 8 0 18 5 21 10 3 6 -1 10 -9 10 -8 0
-18 -4 -21 -10z"/>
<path d="M2332 4460 c0 -14 2 -19 5 -12 2 6 2 18 0 25 -3 6 -5 1 -5 -13z"/>
<path d="M3592 4469 c2 -7 10 -15 17 -17 8 -3 12 1 9 9 -2 7 -10 15 -17 17 -8
3 -12 -1 -9 -9z"/>
<path d="M8511 4444 c-1 -11 6 -29 15 -40 8 -10 12 -13 9 -6 -4 8 -11 26 -15
40 -7 22 -8 23 -9 6z"/>
<path d="M3185 4440 c-8 -13 5 -13 25 0 13 8 13 10 -2 10 -9 0 -20 -4 -23 -10z"/>
<path d="M3640 4415 c0 -15 18 -40 24 -34 3 3 -1 14 -9 25 -8 10 -14 15 -15 9z"/>
<path d="M8609 4403 c-13 -16 -12 -17 4 -4 16 13 21 21 13 21 -2 0 -10 -8 -17
-17z"/>
<path d="M2330 4373 c0 -13 5 -23 10 -23 13 0 13 11 0 30 -8 12 -10 11 -10 -7z"/>
<path d="M3126 4375 c-3 -8 -1 -15 3 -15 5 0 11 7 15 15 3 8 1 15 -3 15 -5 0
-11 -7 -15 -15z"/>
<path d="M8490 4358 c0 -19 2 -20 10 -8 11 16 12 12 12 -40 0 -33 0 -33 5 -5
3 16 8 32 13 35 4 3 -3 13 -16 23 -24 18 -24 18 -24 -5z"/>
<path d="M8610 4350 c-9 -6 -10 -10 -3 -10 6 0 15 5 18 10 8 12 4 12 -15 0z"/>
<path d="M3670 4316 c0 -8 5 -18 10 -21 6 -3 10 3 10 14 0 12 -4 21 -10 21 -5
0 -10 -6 -10 -14z"/>
<path d="M3076 4304 c-4 -10 -1 -14 6 -12 15 5 23 28 10 28 -5 0 -13 -7 -16
-16z"/>
<path d="M8492 4290 c0 -19 2 -27 5 -17 2 9 2 25 0 35 -3 9 -5 1 -5 -18z"/>
<path d="M8709 4303 c-13 -16 -12 -17 4 -4 9 7 17 15 17 17 0 8 -8 3 -21 -13z"/>
<path d="M2340 4286 c0 -8 5 -18 10 -21 6 -3 10 1 10 9 0 8 -4 18 -10 21 -5 3
-10 -1 -10 -9z"/>
<path d="M8531 4265 c-1 -17 -3 -17 -11 -5 -8 13 -10 13 -10 -2 0 -9 -7 -23
-15 -31 -17 -17 -25 -152 -9 -166 5 -5 29 -11 52 -13 42 -4 44 -2 58 32 13 32
21 38 65 49 60 16 60 26 -1 12 -38 -8 -43 -7 -47 10 -3 10 -12 19 -19 19 -8 0
-14 7 -14 16 0 9 -8 28 -19 42 -10 15 -21 34 -24 42 -4 11 -6 9 -6 -5z"/>
<path d="M3047 4244 c-4 -4 -7 -14 -7 -23 0 -11 3 -12 11 -4 6 6 10 16 7 23
-2 6 -7 8 -11 4z"/>
<path d="M3675 4237 c-4 -10 -5 -21 -1 -24 10 -10 18 4 13 24 -4 17 -4 17 -12
0z"/>
<path d="M2360 4206 c0 -8 5 -18 10 -21 6 -3 10 1 10 9 0 8 -4 18 -10 21 -5 3
-10 -1 -10 -9z"/>
<path d="M6145 4191 c-27 -10 -81 -34 -120 -53 -146 -74 -467 -183 -675 -230
-79 -17 -135 -23 -227 -23 l-123 0 0 -76 c0 -93 25 -180 75 -263 19 -32 34
-61 31 -63 -2 -2 -25 -12 -52 -22 -27 -10 -50 -23 -51 -28 -2 -5 12 -27 32
-50 44 -52 104 -77 162 -68 102 15 334 160 729 455 23 16 70 56 104 88 166
151 261 212 330 212 22 0 40 4 40 8 0 5 -25 30 -55 56 -30 26 -55 54 -55 62 0
20 -82 18 -145 -5z"/>
<path d="M3017 4154 c-4 -4 -7 -14 -7 -23 0 -11 3 -12 11 -4 6 6 10 16 7 23
-2 6 -7 8 -11 4z"/>
<path d="M3657 4154 c-4 -4 -7 -14 -7 -23 0 -11 3 -12 11 -4 6 6 10 16 7 23
-2 6 -7 8 -11 4z"/>
<path d="M2390 4121 c0 -5 5 -13 10 -16 6 -3 10 -2 10 4 0 5 -4 13 -10 16 -5
3 -10 2 -10 -4z"/>
<path d="M3002 4060 c0 -14 2 -19 5 -12 2 6 2 18 0 25 -3 6 -5 1 -5 -13z"/>
<path d="M3613 4065 c-9 -25 4 -29 17 -6 7 15 7 21 0 21 -6 0 -13 -7 -17 -15z"/>
<path d="M2430 4041 c0 -5 5 -13 10 -16 6 -3 10 -2 10 4 0 5 -4 13 -10 16 -5
3 -10 2 -10 -4z"/>
<path d="M6514 4028 l-19 -23 23 19 c12 11 22 21 22 23 0 8 -8 2 -26 -19z"/>
<path d="M3560 3995 c-7 -9 -11 -18 -8 -20 3 -3 11 1 18 10 7 9 11 18 8 20 -3
3 -11 -1 -18 -10z"/>
<path d="M2990 3970 c0 -11 5 -20 10 -20 6 0 10 9 10 20 0 11 -4 20 -10 20 -5
0 -10 -9 -10 -20z"/>
<path d="M2480 3965 c7 -9 15 -13 17 -11 7 7 -7 26 -19 26 -6 0 -6 -6 2 -15z"/>
<path d="M7881 3857 c-78 -147 -284 -494 -460 -776 -181 -289 -277 -464 -365
-663 -59 -133 -176 -444 -176 -468 0 -6 -5 -10 -11 -10 -5 0 -8 -4 -4 -9 5 -9
-37 -174 -55 -216 -14 -32 -11 4 5 64 15 59 12 79 -12 60 -10 -9 -16 -10 -21
-2 -4 6 -20 15 -36 19 -26 6 -28 10 -23 41 3 18 2 31 -3 28 -12 -8 -80 26 -80
40 0 21 -58 55 -95 55 l-35 0 25 49 c20 40 22 50 10 55 -10 3 -12 0 -8 -11 4
-9 2 -14 -3 -10 -5 3 -25 -24 -44 -59 l-35 -65 145 -284 c79 -156 147 -282
150 -280 9 6 9 -33 -2 -143 -5 -57 -8 -106 -5 -108 13 -13 263 406 405 676
205 394 471 1035 562 1358 13 45 28 82 32 82 24 0 13 -49 -56 -254 -215 -638
-534 -1304 -857 -1795 -68 -103 -86 -138 -78 -148 16 -18 49 -16 102 7 25 11
51 19 59 17 7 -2 10 -2 7 0 -10 6 9 100 31 150 27 62 103 184 129 207 20 18
20 18 15 -8 -3 -18 0 -25 8 -24 8 2 12 -5 10 -19 -3 -24 20 -66 53 -96 11 -10
14 -15 6 -11 -10 5 -12 3 -6 -5 4 -7 16 -11 26 -8 27 7 24 -12 -3 -23 -13 -5
-17 -9 -10 -9 7 -1 10 -6 7 -11 -4 -6 4 -5 19 1 14 7 23 16 20 20 -3 5 1 6 8
4 16 -6 158 80 266 162 189 141 371 333 499 525 59 89 83 110 83 74 0 -16
-106 -170 -180 -261 -141 -172 -402 -398 -583 -503 -56 -32 -74 -48 -65 -54 8
-6 5 -7 -11 -3 -17 5 -22 4 -16 -5 5 -9 4 -11 -3 -6 -6 4 -28 -3 -49 -14 -21
-12 -29 -18 -18 -14 50 16 58 17 51 5 -5 -8 -3 -12 5 -10 24 3 39 -1 38 -8 -5
-34 3 -63 19 -64 9 -1 4 -5 -13 -10 -21 -6 -9 -7 37 -3 134 9 328 93 453 195
84 68 255 268 255 297 0 5 4 12 9 14 5 2 32 49 60 106 l51 102 296 0 c204 0
310 4 338 12 55 16 138 99 154 154 7 23 12 73 12 112 0 86 -34 160 -97 208
-59 45 -116 54 -346 54 l-203 0 1 53 c0 46 -3 52 -21 55 -16 2 -35 -12 -69
-52 l-47 -56 -199 0 -199 0 10 25 c10 28 52 193 94 370 27 118 55 313 82 570
18 183 32 655 18 655 -5 0 -33 -46 -63 -103z m469 -1597 c18 -18 20 -33 20
-194 0 -145 -3 -177 -16 -190 -18 -19 -55 -21 -72 -4 -13 13 -17 364 -4 384 7
10 28 21 45 23 4 1 16 -8 27 -19z m259 9 c52 -18 61 -49 61 -209 l0 -142 -29
-29 c-27 -27 -35 -29 -106 -29 -123 0 -140 29 -134 239 4 126 13 151 64 172
29 12 107 11 144 -2z"/>
<path d="M3500 3935 c-7 -9 -11 -18 -8 -20 3 -3 11 1 18 10 7 9 11 18 8 20 -3
3 -11 -1 -18 -10z"/>
<path d="M2540 3895 c7 -9 15 -13 17 -11 7 7 -7 26 -19 26 -6 0 -6 -6 2 -15z"/>
<path d="M3002 3880 c0 -14 2 -19 5 -12 2 6 2 18 0 25 -3 6 -5 1 -5 -13z"/>
<path d="M3430 3880 c-8 -5 -12 -11 -9 -14 2 -3 11 -1 19 4 8 5 12 11 9 14 -2
3 -11 1 -19 -4z"/>
<path d="M2604 3835 c11 -8 22 -12 25 -9 6 6 -19 24 -34 24 -5 -1 -1 -7 9 -15z"/>
<path d="M4194 3842 c-6 -4 -19 -34 -28 -67 -58 -207 -172 -476 -365 -864 -77
-156 -141 -290 -141 -297 0 -8 -3 -14 -7 -14 -10 0 -196 390 -196 410 0 8 -8
24 -17 35 -18 20 -166 348 -189 418 -7 20 -16 37 -20 37 -11 0 -20 -99 -31
-330 -10 -194 -1 -468 19 -630 5 -41 9 -76 8 -77 -2 -1 -17 7 -35 19 -18 11
-65 64 -104 117 -39 53 -99 125 -134 161 -46 49 -74 91 -112 170 -58 120 -100
175 -139 183 l-27 5 24 -18 c14 -10 28 -16 32 -14 4 3 8 1 8 -5 0 -5 -6 -11
-12 -14 -10 -3 -10 -7 -1 -17 9 -10 9 -17 0 -32 -14 -23 3 -38 44 -38 22 0 30
-7 42 -37 l14 -37 -61 -31 c-36 -18 -62 -38 -64 -49 -3 -11 0 -16 7 -12 14 9
14 -4 1 -24 -8 -12 -10 -12 -10 -1 0 8 -2 12 -5 9 -9 -9 6 -38 17 -32 5 3 8
-2 6 -12 -2 -12 2 -18 10 -16 8 1 11 -2 7 -8 -4 -6 -1 -17 5 -25 10 -12 9 -16
-6 -22 -10 -4 -19 -2 -22 5 -2 7 -8 12 -14 12 -5 0 -6 -9 -3 -20 4 -14 2 -20
-8 -20 -16 0 -30 -27 -22 -40 3 -5 -37 -64 -90 -132 -52 -67 -95 -129 -95
-136 0 -8 29 -48 65 -90 36 -41 63 -77 61 -80 -3 -2 -60 1 -128 8 -91 9 -138
9 -182 1 -69 -13 -199 -13 -271 -1 -30 5 -54 4 -60 -1 -5 -6 -10 -43 -10 -84
0 -60 4 -79 23 -104 12 -16 22 -33 22 -36 0 -3 -18 -5 -40 -5 -84 0 -122 -91
-61 -142 28 -24 35 -25 247 -31 320 -10 442 -9 467 5 32 17 46 39 47 72 l0 29
97 -6 c95 -6 98 -6 125 -39 17 -20 28 -27 28 -18 0 13 1 13 10 0 14 -21 12
-33 -2 -24 -7 4 -3 -3 9 -15 13 -12 26 -33 29 -47 8 -32 -1 -214 -22 -427 -8
-88 -13 -161 -10 -164 13 -13 92 -14 103 -2 8 11 57 196 87 332 l7 28 35 -43
c20 -24 39 -44 43 -46 4 -1 24 57 44 130 l36 133 -47 80 c-46 79 -46 81 -47
172 0 51 1 93 2 93 1 0 11 -10 23 -22 17 -18 20 -19 20 -5 0 9 7 17 16 17 9 0
14 8 13 18 -3 31 1 43 11 37 6 -3 10 -1 10 4 0 15 22 9 37 -9 11 -13 12 -13
13 3 0 20 25 23 34 5 3 -7 4 9 2 37 -4 46 -3 48 9 25 l13 -25 10 25 c5 14 15
49 22 78 l12 52 84 0 c69 0 85 -3 92 -17 5 -10 35 -120 68 -245 32 -126 61
-228 64 -227 3 0 80 114 171 252 92 139 242 362 335 497 l169 245 -1 165 c-1
244 -28 423 -99 670 -35 122 -81 232 -100 237 -5 1 -15 -1 -21 -5z m-861 -849
c3 -10 8 -36 11 -58 15 -94 110 -455 120 -455 6 0 40 -18 74 -40 l64 -41 96 3
95 3 137 295 c124 266 139 295 161 295 15 0 25 -7 27 -18 2 -9 -58 -150 -134
-312 l-137 -295 -361 2 c-232 2 -361 7 -361 13 0 6 36 11 83 13 78 3 82 4 72
22 -9 17 -6 20 27 29 21 5 55 13 76 17 20 3 37 9 37 12 0 3 -14 57 -31 121
-40 148 -90 391 -83 402 9 15 22 10 27 -8z m-639 -358 c-4 -8 -11 -15 -16 -15
-6 0 -5 6 2 15 7 8 14 15 16 15 2 0 1 -7 -2 -15z"/>
<path d="M3350 3830 c-8 -5 -12 -11 -9 -14 3 -3 14 1 25 9 21 16 8 20 -16 5z"/>
<path d="M3010 3796 c0 -8 5 -18 10 -21 6 -3 10 1 10 9 0 8 -4 18 -10 21 -5 3
-10 -1 -10 -9z"/>
<path d="M2675 3790 c3 -5 11 -10 16 -10 6 0 7 5 4 10 -3 6 -11 10 -16 10 -6
0 -7 -4 -4 -10z"/>
<path d="M3270 3790 c-12 -8 -11 -10 8 -10 12 0 22 5 22 10 0 13 -11 13 -30 0z"/>
<path d="M3190 3760 c-12 -8 -11 -10 8 -10 12 0 22 5 22 10 0 13 -11 13 -30 0z"/>
<path d="M2755 3750 c3 -5 13 -10 21 -10 8 0 12 5 9 10 -3 6 -13 10 -21 10 -8
0 -12 -4 -9 -10z"/>
<path d="M2835 3730 c3 -5 13 -10 21 -10 8 0 12 5 9 10 -3 6 -13 10 -21 10 -8
0 -12 -4 -9 -10z"/>
<path d="M3100 3731 c0 -5 9 -7 20 -4 11 3 20 7 20 9 0 2 -9 4 -20 4 -11 0
-20 -4 -20 -9z"/>
<path d="M2920 3720 c0 -5 9 -10 21 -10 11 0 17 5 14 10 -3 6 -13 10 -21 10
-8 0 -14 -4 -14 -10z"/>
<path d="M3010 3722 c0 -4 9 -13 20 -20 18 -11 20 -10 20 8 0 13 -7 20 -20 20
-11 0 -20 -3 -20 -8z"/>
<path d="M5861 3683 c-10 -26 -10 -27 4 -9 8 11 15 23 15 28 0 15 -7 8 -19
-19z"/>
<path d="M5799 3578 c-23 -40 -53 -91 -66 -114 l-23 -41 51 -22 c29 -11 58
-21 65 -21 26 0 14 -21 -76 -130 -82 -100 -91 -115 -105 -179 -22 -95 -45
-123 -98 -119 -28 2 -43 9 -51 23 -6 11 -12 22 -14 25 -2 2 -7 -2 -12 -10 -7
-12 -12 -11 -29 4 -23 21 -24 25 -12 45 7 11 17 9 55 -7 l46 -21 0 28 c0 35
-14 47 -63 56 -37 7 -38 7 -53 -33 -15 -37 -19 -40 -53 -38 -20 2 -59 13 -88
25 -28 13 -60 21 -70 19 -20 -4 -91 -138 -97 -185 -2 -15 -20 -70 -40 -121
-44 -112 -39 -132 39 -173 62 -33 100 -46 91 -30 -4 6 -3 11 3 11 13 0 23 -17
12 -22 -9 -3 -249 -370 -258 -395 -6 -14 38 -67 69 -84 9 -5 23 -6 32 -3 8 3
85 93 172 200 86 107 158 194 160 194 1 0 37 -16 79 -35 l77 -35 -8 -42 c-10
-51 -10 -105 -1 -115 10 -9 40 21 114 112 81 100 116 158 115 193 0 15 9 38
19 51 11 13 19 30 19 37 0 9 12 14 33 14 29 0 53 21 242 217 116 119 222 232
238 251 33 43 34 72 3 109 -23 26 -29 28 -93 26 -37 -2 -94 -5 -125 -9 -32 -3
-58 -2 -58 3 0 4 25 42 56 83 45 61 49 68 20 41 -20 -19 -36 -29 -36 -22 0 7
-4 9 -10 6 -5 -3 -10 1 -10 9 0 9 -4 16 -9 16 -5 0 -7 9 -4 20 4 15 0 20 -16
20 -11 0 -21 6 -21 14 0 7 -12 21 -26 31 -15 10 -23 22 -20 31 3 9 1 12 -4 9
-6 -3 -10 -12 -10 -18 0 -7 -16 -27 -35 -46 -19 -19 -35 -38 -35 -42 0 -5 -7
-9 -15 -9 -8 0 -15 2 -15 5 0 6 52 88 61 95 11 10 18 40 9 40 -6 0 -10 5 -10
11 0 13 -58 69 -71 69 -5 0 -4 11 1 25 17 44 2 27 -41 -47z m-544 -538 c3 -5
-1 -10 -9 -10 -9 0 -16 5 -16 10 0 6 4 10 9 10 6 0 13 -4 16 -10z m-65 -25 c0
-8 -4 -15 -10 -15 -5 0 -7 7 -4 15 4 8 8 15 10 15 2 0 4 -7 4 -15z m150 -15
c0 -5 -7 -7 -15 -4 -8 4 -15 8 -15 10 0 2 7 4 15 4 8 0 15 -4 15 -10z m614
-12 c-8 -13 -67 -96 -110 -155 l-24 -31 -55 30 -56 30 39 46 c33 39 49 49 113
68 89 26 103 28 93 12z m-539 -18 c3 -5 2 -10 -4 -10 -5 0 -13 5 -16 10 -3 6
-2 10 4 10 5 0 13 -4 16 -10z m-263 -42 c-7 -7 -12 -8 -12 -2 0 14 12 26 19
19 2 -3 -1 -11 -7 -17z m348 2 c0 -5 -4 -10 -9 -10 -6 0 -13 5 -16 10 -3 6 1
10 9 10 9 0 16 -4 16 -10z m85 -40 c3 -5 2 -10 -4 -10 -5 0 -13 5 -16 10 -3 6
-2 10 4 10 5 0 13 -4 16 -10z m-415 -30 c0 -5 -7 -7 -15 -4 -8 4 -15 8 -15 10
0 2 7 4 15 4 8 0 15 -4 15 -10z m490 0 c13 -8 13 -10 -2 -10 -9 0 -20 5 -23
10 -8 13 5 13 25 0z m-546 -45 c-4 -8 -10 -15 -15 -15 -4 0 -6 7 -3 15 4 8 10
15 15 15 4 0 6 -7 3 -15z m621 5 c3 -5 2 -10 -4 -10 -5 0 -13 5 -16 10 -3 6
-2 10 4 10 5 0 13 -4 16 -10z m-495 -10 c0 -5 -2 -10 -4 -10 -3 0 -8 5 -11 10
-3 6 -1 10 4 10 6 0 11 -4 11 -10z m575 -30 c3 -5 2 -10 -4 -10 -5 0 -13 5
-16 10 -3 6 -2 10 4 10 5 0 13 -4 16 -10z m-500 -20 c3 -5 2 -10 -4 -10 -5 0
-13 5 -16 10 -3 6 -2 10 4 10 5 0 13 -4 16 -10z m-243 -32 c-7 -7 -12 -8 -12
-2 0 6 3 14 7 17 3 4 9 5 12 2 2 -3 -1 -11 -7 -17z m359 12 c12 0 11 -67 -1
-75 -6 -4 -8 -11 -5 -16 8 -12 -22 -11 -46 2 -20 10 -20 17 2 78 6 15 14 21
25 17 9 -3 20 -6 25 -6z m373 -45 c-4 -8 -8 -15 -10 -15 -2 0 -4 7 -4 15 0 8
4 15 10 15 5 0 7 -7 4 -15z m-740 -40 c3 -8 1 -15 -4 -15 -6 0 -10 7 -10 15 0
8 2 15 4 15 2 0 6 -7 10 -15z m471 -5 c3 -5 2 -10 -4 -10 -5 0 -13 5 -16 10
-3 6 -2 10 4 10 5 0 13 -4 16 -10z m85 -20 c0 -5 -7 -7 -15 -4 -8 4 -15 8 -15
10 0 2 7 4 15 4 8 0 15 -4 15 -10z m152 -22 c-7 -7 -12 -8 -12 -2 0 14 12 26
19 19 2 -3 -1 -11 -7 -17z m-62 2 c0 -5 -4 -10 -9 -10 -6 0 -13 5 -16 10 -3 6
1 10 9 10 9 0 16 -4 16 -10z m-585 -10 c3 -5 1 -10 -4 -10 -6 0 -11 5 -11 10
0 6 2 10 4 10 3 0 8 -4 11 -10z m170 -80 c3 -5 2 -10 -4 -10 -5 0 -13 5 -16
10 -3 6 -2 10 4 10 5 0 13 -4 16 -10z m429 -15 c-4 -8 -11 -15 -16 -15 -6 0
-5 6 2 15 7 8 14 15 16 15 2 0 1 -7 -2 -15z m-344 -21 c0 -2 -7 -4 -15 -4 -8
0 -15 4 -15 10 0 5 7 7 15 4 8 -4 15 -8 15 -10z m75 -34 c3 -5 2 -10 -4 -10
-5 0 -13 5 -16 10 -3 6 -2 10 4 10 5 0 13 -4 16 -10z m217 -32 c-7 -7 -12 -8
-12 -2 0 14 12 26 19 19 2 -3 -1 -11 -7 -17z m-132 -4 c0 -2 -7 -4 -15 -4 -8
0 -15 4 -15 10 0 5 7 7 15 4 8 -4 15 -8 15 -10z m80 -34 c0 -5 -4 -10 -9 -10
-6 0 -13 5 -16 10 -3 6 1 10 9 10 9 0 16 -4 16 -10z"/>
<path d="M3062 3624 c2 -13 -4 -20 -20 -22 -12 -2 -27 -12 -32 -23 -13 -23
-66 -25 -94 -4 -26 19 -56 19 -85 -1 -18 -13 -22 -23 -17 -45 4 -23 1 -32 -18
-45 -40 -25 -44 -74 -7 -74 41 -1 46 -14 42 -129 -3 -126 -4 -124 102 -160 67
-23 66 -24 92 75 19 74 12 82 -57 67 -74 -15 -81 -7 -73 81 13 125 30 141 122
110 44 -15 59 -16 85 -6 17 6 35 9 40 6 5 -3 7 5 4 18 -3 12 -8 40 -11 61 -4
24 -14 43 -30 53 -14 9 -25 22 -25 30 0 7 -5 16 -11 19 -6 4 -9 0 -7 -11z"/>
<path d="M3176 3385 c4 -8 10 -15 15 -15 4 0 6 7 3 15 -4 8 -10 15 -15 15 -4
0 -6 -7 -3 -15z"/>
<path d="M5634 3293 c-20 -38 -43 -75 -51 -85 -9 -10 -11 -18 -4 -22 5 -4 13
-1 17 6 16 25 83 168 80 168 -3 0 -21 -30 -42 -67z"/>
<path d="M9000 3216 c0 -2 8 -10 18 -17 15 -13 16 -12 3 4 -13 16 -21 21 -21
13z"/>
<path d="M8722 3175 c0 -16 2 -22 5 -12 2 9 2 23 0 30 -3 6 -5 -1 -5 -18z"/>
<path d="M8880 3188 c-19 -5 -41 -17 -47 -26 -11 -13 -13 -13 -14 -1 -1 8 -4
3 -9 -11 l-7 -25 -11 25 c-10 23 -11 23 -11 4 -1 -19 -7 -22 -36 -20 -19 1
-35 -2 -35 -7 0 -4 -9 -26 -20 -49 -11 -22 -17 -45 -13 -51 3 -6 1 -7 -5 -3
-7 4 -12 3 -12 -1 0 -29 -154 -153 -190 -153 -16 0 -12 27 5 34 8 3 14 11 13
17 -2 6 4 14 12 16 13 4 13 3 0 -6 -9 -6 -10 -11 -3 -11 6 0 36 23 67 51 61
55 121 162 113 202 -4 19 -4 18 -6 -5 -1 -21 -5 -26 -18 -22 -13 4 -14 3 -5
-3 16 -12 -2 -68 -19 -57 -7 4 -9 0 -5 -14 4 -11 2 -23 -3 -27 -7 -3 -8 0 -5
9 6 17 -4 20 -31 10 -14 -6 -13 -8 5 -21 20 -14 20 -16 3 -28 -11 -8 -20 -10
-24 -4 -8 14 -89 -29 -89 -47 0 -14 -23 -22 -80 -26 -28 -2 -35 -7 -34 -24 0
-11 -5 -21 -10 -22 -39 -3 -156 -36 -181 -50 -16 -9 -31 -15 -32 -14 -2 1 -12
2 -23 2 -12 0 -17 -5 -14 -13 3 -10 -5 -14 -28 -15 -23 -1 -39 -9 -55 -28 -19
-25 -24 -26 -39 -13 -10 8 -15 9 -11 2 4 -7 30 -25 56 -40 48 -27 49 -28 63
-97 l13 -70 60 -13 c106 -22 109 -21 147 47 26 48 38 60 58 61 14 0 57 9 95
19 77 21 65 24 152 -40 l33 -24 70 49 c38 26 70 51 70 54 0 3 -8 36 -17 73
-17 66 -17 68 4 90 11 13 35 48 52 80 33 58 38 61 123 73 51 8 51 7 62 105 3
26 2 35 -2 21 l-7 -24 -37 37 c-39 39 -37 39 -88 24z m-315 -208 c-3 -5 -12
-10 -18 -10 -7 0 -6 4 3 10 19 12 23 12 15 0z m-495 -250 c12 -8 11 -10 -7
-10 -12 0 -25 5 -28 10 -8 13 15 13 35 0z"/>
<path d="M8456 3163 c-6 -14 -5 -15 5 -6 7 7 10 15 7 18 -3 3 -9 -2 -12 -12z"/>
<path d="M2677 3089 c7 -7 15 -10 18 -7 3 3 -2 9 -12 12 -14 6 -15 5 -6 -5z"/>
<path d="M8328 3073 c7 -3 16 -2 19 1 4 3 -2 6 -13 5 -11 0 -14 -3 -6 -6z"/>
<path d="M3490 2965 c7 -8 17 -15 22 -15 6 0 5 7 -2 15 -7 8 -17 15 -22 15 -6
0 -5 -7 2 -15z"/>
<path d="M3550 2895 c7 -8 17 -15 22 -15 6 0 5 7 -2 15 -7 8 -17 15 -22 15 -6
0 -5 -7 2 -15z"/>
<path d="M3610 2842 c0 -12 19 -26 26 -19 2 2 -2 10 -11 17 -9 8 -15 8 -15 2z"/>
<path d="M3672 2779 c2 -7 10 -15 17 -17 8 -3 12 1 9 9 -2 7 -10 15 -17 17 -8
3 -12 -1 -9 -9z"/>
<path d="M6566 2193 c-6 -14 -5 -15 5 -6 7 7 10 15 7 18 -3 3 -9 -2 -12 -12z"/>
<path d="M3465 2097 c-17 -71 -17 -73 3 -112 l21 -40 1 113 c0 61 -2 112 -4
112 -2 0 -12 -33 -21 -73z"/>
<path d="M3550 1960 l0 -115 59 -88 c32 -49 61 -85 64 -80 8 13 -46 207 -87
308 l-35 90 -1 -115z"/>
<path d="M4855 2056 c-25 -8 -45 -22 -52 -37 -15 -31 -39 -314 -30 -351 4 -16
14 -28 22 -28 19 0 42 35 113 170 59 114 87 189 61 163 -22 -22 -58 -15 -71
13 -10 20 -9 30 6 55 19 33 15 34 -49 15z"/>
<path d="M6758 1863 c7 -3 16 -2 19 1 4 3 -2 6 -13 5 -11 0 -14 -3 -6 -6z"/>
<path d="M3304 1457 l-30 -122 80 -89 c109 -120 115 -124 166 -95 22 12 40 29
40 37 0 15 -193 356 -214 379 -8 9 -19 -18 -42 -110z"/>
<path d="M8911 1430 c-2 -80 -7 -156 -11 -170 -7 -23 -8 -23 -9 -3 -2 54 0 53
-180 51 l-166 -2 163 -3 c134 -3 162 -6 162 -18 0 -12 -42 -15 -272 -18 l-273
-3 278 1 c247 0 314 -5 260 -18 -15 -3 -14 -6 7 -15 14 -6 23 -11 20 -12 -3
-1 -14 -4 -25 -7 -11 -3 -63 -9 -115 -13 l-95 -6 103 -2 c96 -2 104 0 127 22
32 32 37 66 33 226 l-4 135 -3 -145z"/>
<path d="M8740 1523 c105 -3 130 -6 130 -18 0 -11 -23 -15 -110 -18 l-110 -3
112 0 c106 1 113 2 113 21 0 19 -7 20 -133 20 l-132 1 130 -3z"/>
<path d="M8870 1430 c0 -5 -44 -11 -97 -13 l-98 -3 98 -2 c79 -2 97 -5 97 -17
0 -13 -28 -15 -182 -17 l-183 -3 180 -2 c108 -2 182 -8 185 -14 4 -5 7 11 8
36 1 25 0 45 -3 45 -3 0 -5 -4 -5 -10z"/>
<path d="M8753 1333 c26 -2 67 -2 90 0 23 2 2 3 -48 3 -49 0 -68 -1 -42 -3z"/>
<path d="M7135 1227 l-20 -20 25 13 c32 16 33 17 23 23 -4 2 -17 -5 -28 -16z"/>
<path d="M3738 1207 c-20 -12 -69 -52 -108 -89 -39 -38 -77 -68 -85 -68 -20 0
-19 -13 5 -60 12 -24 28 -40 38 -40 23 0 232 168 227 183 -2 7 -9 31 -15 55
-6 23 -14 42 -18 42 -4 0 -24 -10 -44 -23z"/>
<path d="M3887 1210 c6 -24 26 -21 31 3 2 11 -3 17 -16 17 -15 0 -19 -5 -15
-20z"/>
<path d="M3050 1103 c-14 -2 -41 -8 -62 -14 -25 -8 -45 -9 -66 -1 -29 10 -30
9 -40 -28 -16 -64 -6 -70 112 -70 l103 0 7 38 c3 20 9 47 12 60 7 23 -2 25
-66 15z"/>
<path d="M3206 1054 c-4 -19 -10 -42 -13 -50 -4 -11 7 -14 56 -14 45 0 61 4
61 14 0 14 -74 86 -89 86 -5 0 -12 -16 -15 -36z"/>
<path d="M6878 1083 c12 -2 32 -2 45 0 12 2 2 4 -23 4 -25 0 -35 -2 -22 -4z"/>
</g>
</svg>
